<svg width="202.000000" height="59.212494" viewBox="0 0 202 59.2125" fill="none" xmlns="http://www.w3.org/2000/svg" xmlns:xlink="http://www.w3.org/1999/xlink">
	<desc>
			Created with Pixso.
	</desc>
	<defs/>
	<path id="Vector" d="M66.5679 31.3492L66.5679 1.25397L78.4414 1.25397Q81.8652 1.25397 84.2754 2.56183C85.8818 3.42392 87.1064 4.62399 87.9492 6.16208Q87.9595 6.18088 87.9702 6.19977Q89.2275 8.4791 89.2275 11.4522Q89.2275 14.3736 87.9995 16.6251L87.999 16.6256Q87.9673 16.6842 87.9346 16.7424Q87.4863 17.5367 86.8989 18.2092L86.8989 18.2092Q85.791 19.4778 84.187 20.3133C82.561 21.1656 80.5918 21.5917 78.2798 21.5917L72.9312 21.5917L72.9312 31.3492L66.5679 31.3492ZM93.3604 31.3492L93.3604 1.25397L105.234 1.25397Q108.643 1.25397 111.053 2.47363Q112.679 3.28162 113.783 4.54541Q114.325 5.16644 114.742 5.89755C115.594 7.36707 116.02 9.09616 116.02 11.0849C116.02 13.0834 115.589 14.8027 114.727 16.2428Q114.373 16.8304 113.932 17.3431Q112.762 18.7022 110.98 19.5345C110.89 19.5766 110.799 19.6176 110.708 19.6574L117.093 31.3492L110.069 31.3492L104.368 20.6806L99.7236 20.6806L99.7236 31.3492L93.3604 31.3492ZM125.704 31.3492L118.886 31.3492L129.275 1.25397L137.475 1.25397L147.849 31.3492L141.031 31.3492L138.803 24.4866L127.937 24.4866L125.704 31.3492ZM153.15 1.25397L160.424 24.1193L160.704 24.1193L167.992 1.25397L175.046 1.25397L164.671 31.3492L156.472 31.3492L146.082 1.25397L153.15 1.25397ZM179.855 31.3492L173.037 31.3492L183.426 1.25397L191.625 1.25397L202 31.3492L195.182 31.3492L192.954 24.4866L182.087 24.4866L179.855 31.3492ZM72.9312 16.4926L77.2515 16.4926C78.4756 16.4926 79.4849 16.282 80.2783 15.8607C81.0815 15.4297 81.6792 14.837 82.0713 14.0826C82.4727 13.3185 82.6738 12.4417 82.6738 11.4522C82.6738 10.453 82.4727 9.58109 82.0713 8.83655C81.6792 8.08221 81.0815 7.4993 80.2783 7.08786Q79.0732 6.45596 77.2217 6.45596L72.9312 6.45596L72.9312 16.4926ZM99.7236 15.5668L104.044 15.5668Q105.866 15.5668 107.071 15.0672C107.874 14.7341 108.472 14.2345 108.864 13.5683C109.265 12.9021 109.466 12.0743 109.466 11.0849C109.466 10.0856 109.265 9.2431 108.864 8.55734C108.472 7.87158 107.869 7.35236 107.056 6.99969C106.253 6.63721 105.239 6.45596 104.014 6.45596L99.7236 6.45596L99.7236 15.5668ZM137.19 19.5197L133.492 8.1312L133.257 8.1312L129.552 19.5197L137.19 19.5197ZM191.341 19.5197L187.643 8.1312L187.408 8.1312L183.703 19.5197L191.341 19.5197ZM108.699 43.1461C108.236 43.1461 107.838 42.9917 107.506 42.683C107.179 42.3683 107.016 41.9942 107.016 41.5608C107.016 41.1214 107.179 40.7474 107.506 40.4386C107.838 40.124 108.236 39.9666 108.699 39.9666C109.163 39.9666 109.557 40.124 109.884 40.4386C110.216 40.7474 110.383 41.1214 110.383 41.5608C110.383 41.9942 110.216 42.3683 109.884 42.683C109.557 42.9917 109.163 43.1461 108.699 43.1461ZM102.017 40.6969L102.017 58.9364L99.3535 58.9364L99.3535 40.6969L102.017 40.6969ZM71.5044 59.2125C70.2222 59.2125 69.103 58.9186 68.147 58.3308C67.1909 57.743 66.4492 56.9207 65.9204 55.8638C65.3921 54.807 65.1279 53.572 65.1279 52.1589C65.1279 50.7399 65.3921 49.499 65.9204 48.4362C66.4492 47.3734 67.1909 46.5482 68.147 45.9604Q68.2529 45.8953 68.3613 45.8351Q69.7227 45.0787 71.5044 45.0787Q73.2866 45.0787 74.6479 45.8351Q74.7563 45.8953 74.8623 45.9604C75.8179 46.5482 76.5601 47.3734 77.0889 48.4362C77.6172 49.499 77.8813 50.7399 77.8813 52.1589C77.8813 53.572 77.6172 54.807 77.0889 55.8638C76.5601 56.9207 75.8179 57.743 74.8623 58.3308C73.9062 58.9186 72.7871 59.2125 71.5044 59.2125ZM85.272 50.8141L85.272 58.9364L82.6094 58.9364L82.6094 45.2568L85.1655 45.2568L85.1655 47.4833L85.3345 47.4833C85.6494 46.7589 86.1421 46.1771 86.813 45.7377C87.4897 45.2983 88.3418 45.0787 89.3691 45.0787C90.3013 45.0787 91.1177 45.2746 91.8179 45.6664C92.5186 46.0524 93.062 46.6283 93.4478 47.3942C93.834 48.1602 94.0269 49.1071 94.0269 50.2352L94.0269 58.9364L91.3638 58.9364L91.3638 50.5558C91.3638 49.5643 91.1055 48.7895 90.5889 48.2314C90.0723 47.6674 89.3628 47.3853 88.4604 47.3853C87.8433 47.3853 87.2939 47.5189 86.813 47.7861C86.3379 48.0533 85.9609 48.4451 85.6816 48.9617C85.4087 49.4723 85.272 50.0898 85.272 50.8141ZM118.019 50.8141L118.019 58.9364L115.355 58.9364L115.355 45.2568L117.912 45.2568L117.912 47.4833L118.081 47.4833C118.396 46.7589 118.888 46.1771 119.559 45.7377C120.236 45.2983 121.088 45.0787 122.115 45.0787C123.047 45.0787 123.864 45.2746 124.564 45.6664C125.265 46.0524 125.808 46.6283 126.194 47.3942C126.58 48.1602 126.773 49.1071 126.773 50.2352L126.773 58.9364L124.11 58.9364L124.11 50.5558C124.11 49.5643 123.852 48.7895 123.335 48.2314C122.819 47.6674 122.109 47.3853 121.207 47.3853C120.589 47.3853 120.04 47.5189 119.559 47.7861C119.084 48.0533 118.707 48.4451 118.428 48.9617C118.155 49.4723 118.019 50.0898 118.019 50.8141ZM137.996 59.2125C136.648 59.2125 135.487 58.9245 134.513 58.3486C133.545 57.7668 132.797 56.9504 132.269 55.8995C131.747 54.8426 131.485 53.6047 131.485 52.1857C131.485 50.7845 131.747 49.5495 132.269 48.4808C132.797 47.412 133.534 46.5779 134.478 45.9782C135.428 45.3785 136.538 45.0787 137.809 45.0787C138.581 45.0787 139.329 45.2063 140.053 45.4616C140.777 45.7169 141.427 46.1177 142.003 46.6639C142.579 47.2102 143.033 47.9197 143.366 48.7925C143.698 49.6593 143.865 50.7132 143.865 51.9541L143.865 52.8981L134.142 52.8981Q134.172 54.1489 134.62 55.0445C134.947 55.6857 135.401 56.1755 135.983 56.514C136.564 56.8465 137.245 57.0127 138.022 57.0127C138.527 57.0127 138.987 56.9415 139.403 56.799C139.818 56.6505 140.178 56.4308 140.48 56.1399C140.783 55.849 141.015 55.4898 141.175 55.0623L143.695 55.5165C143.494 56.2587 143.131 56.9088 142.609 57.4669C142.092 58.0191 141.442 58.4496 140.659 58.7583C139.881 59.0611 138.993 59.2125 137.996 59.2125ZM107.354 58.9364L107.354 45.2568L110.018 45.2568L110.018 58.9364L107.354 58.9364ZM134.146 50.9032L141.255 50.9032C141.255 50.2026 141.113 49.5821 140.828 49.0418C140.542 48.4956 140.142 48.0651 139.625 47.7505C139.115 47.4358 138.515 47.2784 137.826 47.2784C137.078 47.2784 136.425 47.4625 135.867 47.8306C135.315 48.1928 134.887 48.6678 134.584 49.2556C134.324 49.766 134.178 50.3152 134.146 50.9032ZM71.5137 56.9771C72.3447 56.9771 73.0337 56.7574 73.5796 56.3181C74.126 55.8787 74.5298 55.2939 74.791 54.5636Q75.1919 53.4681 75.1919 52.15C75.1919 51.2773 75.0581 50.4757 74.791 49.7454C74.5298 49.0092 74.126 48.4184 73.5796 47.9731C73.0337 47.5278 72.3447 47.3052 71.5137 47.3052C70.6763 47.3052 69.9819 47.5278 69.4297 47.9731C68.8833 48.4184 68.4766 49.0092 68.2095 49.7454C67.9482 50.4757 67.8174 51.2773 67.8174 52.15Q67.8174 53.4681 68.2095 54.5636C68.4766 55.2939 68.8833 55.8787 69.4297 56.3181C69.9819 56.7574 70.6763 56.9771 71.5137 56.9771Z" fill="#012231" fill-opacity="1.000000" fill-rule="evenodd"/>
	<path id="Vector" d="M10.1099 15.186L10.1099 11.5703C15.1787 4.70044 29.0322 5.06201 34.7769 11.5703L34.7769 15.186L43.8999 15.186C41.8726 10.124 34.7769 0 22.6123 0C10.4478 0 3.12695 10.124 0.986816 15.186L10.1099 15.186Z" fill="#289CD8" fill-opacity="1.000000" fill-rule="nonzero"/>
	<path id="Vector" d="M29.0327 23.8638C29.0327 27.8577 26.0068 31.0953 22.2744 31.0953C18.542 31.0953 15.5166 27.8577 15.5166 23.8638C15.5166 19.87 18.542 16.6324 22.2744 16.6324C26.0068 16.6324 29.0327 19.87 29.0327 23.8638Z" fill="#289CD8" fill-opacity="1.000000" fill-rule="nonzero"/>
	<path id="Vector" d="M14.5029 37.242L16.8682 39.773C18.7827 38.2062 23.7612 36.0127 28.3569 39.773L30.7222 37.242C28.2441 34.711 21.5312 31.1676 14.5029 37.242Z" fill="#289CD8" fill-opacity="1.000000" fill-rule="nonzero"/>
	<path id="Vector" d="M0.311035 18.0786L6.39307 18.0786C5.0415 33.2647 6.66357 31.6738 22.6123 49.8971C39.8452 32.9031 38.8315 30.806 38.8315 18.0786L44.5757 18.0786C47.6172 36.5189 38.1558 41.5809 22.6123 58.9364C9.43408 43.0272 -2.0542 40.1346 0.311035 18.0786Z" fill="#012231" fill-opacity="1.000000" fill-rule="nonzero"/>
</svg>
