<svg width="65.104492" height="82.843750" viewBox="0 0 65.1045 82.8438" fill="none" xmlns="http://www.w3.org/2000/svg" xmlns:xlink="http://www.w3.org/1999/xlink">
	<desc>
			Created with Pixso.
	</desc>
	<defs/>
	<path id="Vector" d="M54.792 27.9967L48.0581 45.5812C47.8999 45.992 47.5098 46.2447 47.0957 46.2447C46.9736 46.2447 46.8481 46.2224 46.7275 46.1759C46.1968 45.9714 45.9302 45.3767 46.1328 44.8439L52.8672 27.2594C53.0718 26.7266 53.668 26.4619 54.1992 26.6647C54.73 26.8692 54.9966 27.4656 54.792 27.9967ZM65.1045 70.907C65.1045 77.4881 59.7505 82.8438 53.168 82.8438C48.1748 82.8438 43.8901 79.7603 42.1113 75.3998L5.89697 75.3998C2.64502 75.3998 0 72.7547 0 69.5028L0 5.89703C0.00195312 2.64514 2.64697 0 5.89893 0L48.3022 0C51.5537 0 54.1992 2.64514 54.1992 5.89703L54.1992 13.8978C55.0273 13.726 55.9126 13.7792 56.7598 14.1041L60.6821 15.6063C61.8198 16.0428 62.7222 16.8987 63.2207 18.0159C63.7192 19.1349 63.7554 20.3775 63.3188 21.5153L62.0503 24.8256C62.0488 24.8308 62.0449 24.8342 62.0435 24.8376L62.0449 24.8376L54.1992 44.5363L54.1992 59.0184C60.3008 59.5444 65.1045 64.6731 65.1045 70.907ZM59.7437 25.0456L51.1416 21.7508L40.3784 49.8627L48.6045 53.0131L59.7437 25.0456ZM40.3442 52.0609L41.5645 59.7231L47.2295 54.6975L40.3442 52.0609ZM52.7759 17.478L51.877 19.8241L60.4932 23.1241L61.3921 20.7762C61.6309 20.1523 61.6104 19.47 61.3369 18.8547C61.062 18.2394 60.5669 17.7684 59.9448 17.5295L56.0225 16.0273C54.7285 15.5341 53.2725 16.1837 52.7759 17.478ZM41.4819 73.3373C41.3188 72.5536 41.2329 71.7406 41.2329 70.9088C41.2329 64.6748 46.0366 59.5444 52.1382 59.0202L52.1382 49.7166L50.1426 54.725L50.1411 54.725C50.0825 54.8728 49.9917 55.0069 49.8696 55.1152L41.5269 62.5161C41.334 62.6862 41.0903 62.7756 40.8428 62.7756C40.7256 62.7756 40.6089 62.7567 40.4956 62.7155C40.1416 62.5883 39.8838 62.2789 39.8252 61.9059L38.0293 50.6206C38 50.4384 38.0205 50.2563 38.084 50.0895L49.584 20.0509L50.8525 16.7406C51.1328 16.0084 51.583 15.3897 52.1401 14.9119L52.1401 5.89703C52.1401 3.78296 50.4194 2.0625 48.3057 2.0625L5.89893 2.0625C3.78467 2.0625 2.06445 3.78296 2.06445 5.89703L2.06445 69.5028C2.06445 71.6169 3.78467 73.3373 5.89893 73.3373L41.4819 73.3373ZM63.042 70.907C63.042 65.462 58.6128 61.0328 53.168 61.0328C47.7227 61.0328 43.2935 65.462 43.2935 70.907C43.2935 76.352 47.7227 80.7812 53.168 80.7812C58.6128 80.7812 63.042 76.352 63.042 70.907ZM57.3926 67.0244L51.8135 72.6035L48.9448 69.7349C48.5425 69.3326 47.8896 69.3326 47.4873 69.7349C47.085 70.137 47.085 70.7902 47.4873 71.1941L51.0845 74.7914C51.2773 74.9839 51.54 75.0939 51.8135 75.0939C52.0869 75.0939 52.3496 74.9856 52.542 74.7914L58.8501 68.4819C59.252 68.0797 59.252 67.4266 58.8501 67.0226C58.4478 66.6205 57.7949 66.6205 57.3926 67.0244ZM42.3018 64.7556C42.3018 64.1867 41.8394 63.7244 41.2705 63.7244L25.2002 63.7244C24.6313 63.7244 24.1689 64.1867 24.1689 64.7556C24.1689 65.3245 24.6313 65.7869 25.2002 65.7869L41.2705 65.7869C41.8394 65.7869 42.3018 65.3245 42.3018 64.7556ZM10.5342 13.6864L45.2393 13.6864C45.8081 13.6864 46.2705 13.2241 46.2705 12.6552C46.2705 12.0862 45.8081 11.6239 45.2393 11.6239L10.5342 11.6239C9.96533 11.6239 9.50293 12.0862 9.50293 12.6552C9.50293 13.2241 9.96533 13.6864 10.5342 13.6864ZM10.5342 23.7411L41.9014 23.7411C42.4702 23.7411 42.9326 23.2787 42.9326 22.7098C42.9326 22.1409 42.4702 21.6786 41.9014 21.6786L10.5342 21.6786C9.96533 21.6786 9.50293 22.1409 9.50293 22.7098C9.50293 23.2787 9.96533 23.7411 10.5342 23.7411ZM10.5342 33.7975L38.0444 33.7975C38.6133 33.7975 39.0757 33.3351 39.0757 32.7662C39.0757 32.1974 38.6133 31.735 38.0444 31.735L10.5342 31.735C9.96533 31.735 9.50293 32.1974 9.50293 32.7662C9.50293 33.3351 9.96533 33.7975 10.5342 33.7975ZM10.5342 43.8522L33.8403 43.8522C34.4092 43.8522 34.8716 43.3898 34.8716 42.821C34.8716 42.252 34.4092 41.7897 33.8403 41.7897L10.5342 41.7897C9.96533 41.7897 9.50293 42.252 9.50293 42.821C9.50293 43.3898 9.96533 43.8522 10.5342 43.8522ZM10.5342 53.9086L34.7168 53.9086C35.2861 53.9086 35.748 53.4463 35.748 52.8773C35.748 52.3084 35.2861 51.8461 34.7168 51.8461L10.5342 51.8461C9.96533 51.8461 9.50293 52.3084 9.50293 52.8773C9.50293 53.4463 9.96533 53.9086 10.5342 53.9086ZM22.8286 59.0287L22.8286 70.2917C22.8286 70.8606 22.3662 71.323 21.7974 71.323L10.5342 71.323C9.96533 71.323 9.50293 70.8606 9.50293 70.2917L9.50293 59.0287C9.50293 58.4598 9.96533 57.9975 10.5342 57.9975L21.7974 57.9975C22.3662 57.9975 22.8286 58.4598 22.8286 59.0287ZM20.7661 60.06L11.5654 60.06L11.5654 69.2605L20.7661 69.2605L20.7661 60.06ZM14.6006 67.3355C14.7935 67.528 15.0562 67.638 15.3296 67.638C15.603 67.638 15.8657 67.5297 16.0581 67.3355L19.9512 63.4425C20.3535 63.0403 20.3535 62.3872 19.9512 61.9833C19.5488 61.5811 18.896 61.5811 18.4937 61.9833L15.3296 65.1475L13.8379 63.6556C13.4355 63.2534 12.7822 63.2534 12.3804 63.6556C11.978 64.0578 11.978 64.7109 12.3804 65.1148L14.6006 67.3355Z" fill="#289CD8" fill-opacity="1.000000" fill-rule="nonzero"/>
</svg>
