<svg width="88.000000" height="88.000000" viewBox="0 0 88 88" fill="none" xmlns="http://www.w3.org/2000/svg" xmlns:xlink="http://www.w3.org/1999/xlink">
	<desc>
			Created with Pixso.
	</desc>
	<defs>
		<clipPath id="clip15_475">
			<rect id="icon.svg (14) 1" width="88.000000" height="88.000000" fill="white" fill-opacity="0"/>
		</clipPath>
	</defs>
	<rect id="icon.svg (14) 1" width="88.000000" height="88.000000" fill="#FFFFFF" fill-opacity="0"/>
	<g clip-path="url(#clip15_475)">
		<path id="Vector" d="M81.2969 46.5755C79.5581 45.686 77.6006 45.3134 75.6567 45.5019C73.7129 45.6903 71.8633 46.432 70.3276 47.6389L61.96 54.2185C60.958 52.9585 59.6387 51.9877 58.1377 51.4058C56.6367 50.8239 55.0078 50.6519 53.4185 50.9073L39.7017 53.0987C39.1392 53.1758 38.5664 53.1069 38.0381 52.8986C35.0161 51.8086 31.7744 51.4673 28.5918 51.904C25.4087 52.3407 22.3789 53.5424 19.7622 55.406C19.4526 54.4937 18.8345 53.7181 18.0137 53.2134C17.1929 52.7087 16.2217 52.5067 15.2681 52.6422L8.98926 53.5512C7.90723 53.709 6.93164 54.2896 6.27686 55.1656C5.62256 56.0416 5.3418 57.1414 5.49658 58.224L8.4126 78.3737C8.57422 79.4539 9.15576 80.4265 10.0312 81.0803C10.9062 81.734 12.0039 82.0159 13.0854 81.8648L19.3643 80.9559C20.2207 80.8373 21.0176 80.4488 21.6382 79.8467C22.2593 79.2446 22.6724 78.4603 22.8169 77.6077L26.4722 74.7953C27.3804 74.1038 28.5112 73.7703 29.6494 73.858L47.8618 75.2812C50.1636 75.4607 52.4775 75.1517 54.6514 74.3747C56.8252 73.5976 58.8105 72.37 60.4771 70.7722L81.8154 50.311C82.0815 50.0567 82.2837 49.7426 82.4048 49.3948C82.5259 49.047 82.563 48.6754 82.5122 48.3106C82.4614 47.9458 82.3252 47.5982 82.1138 47.2965C81.9023 46.9949 81.6226 46.7477 81.2969 46.5755ZM19.876 77.6969C19.7676 77.8418 19.6323 77.9639 19.4771 78.0563C19.3218 78.1487 19.1499 78.2095 18.9707 78.2354L12.6919 79.1444C12.5132 79.1703 12.3311 79.1608 12.1558 79.1162C11.981 79.0717 11.8159 78.993 11.6714 78.8847C11.5269 78.7765 11.4048 78.6407 11.3125 78.4853C11.2207 78.3299 11.1602 78.1578 11.1343 77.9789L8.21875 57.8306C8.16699 57.4696 8.26074 57.1028 8.47852 56.8107C8.69678 56.5185 9.02197 56.3247 9.38281 56.2716L15.6616 55.3626C16.0225 55.3125 16.3882 55.4068 16.6802 55.625C16.9717 55.8433 17.1655 56.1678 17.2192 56.5281L20.1348 76.6778C20.1611 76.8563 20.1519 77.0383 20.1074 77.2133C20.063 77.3882 19.9844 77.5526 19.876 77.6969ZM58.5732 68.7876C57.1855 70.1157 55.5337 71.1362 53.7251 71.7827C51.9165 72.4291 49.9917 72.687 48.0767 72.5393L29.8599 71.116C28.0464 70.9723 26.2441 71.5052 24.8003 72.6118L22.5737 74.3259L20.2705 58.4108C22.5781 56.5071 25.3413 55.2358 28.2881 54.7214C31.2354 54.2071 34.2651 54.4673 37.0815 55.4767C38.0527 55.8544 39.106 55.9706 40.1362 55.8138L53.8545 53.6223C55.3765 53.3819 56.9336 53.701 58.2383 54.5207C59.543 55.3404 60.5063 56.605 60.9497 58.0804L44.7876 60.7336C44.4321 60.7975 44.1162 60.9985 43.9077 61.2934C43.6997 61.5883 43.6157 61.9533 43.6743 62.3095C43.7329 62.6658 43.9292 62.9847 44.2207 63.1974C44.5127 63.4101 44.8765 63.4994 45.2334 63.446L61.9111 60.7095C62.2324 60.6517 62.5381 60.5269 62.8076 60.3433C63.0776 60.1596 63.3057 59.9211 63.4771 59.6435C63.6489 59.3658 63.7598 59.0551 63.8032 58.7317C63.8467 58.4082 63.8218 58.0792 63.7295 57.7661C63.6035 57.4126 63.5024 56.9653 63.3467 56.6264L72.0293 49.7995C73.0659 48.9848 74.3003 48.4592 75.606 48.2759C76.9121 48.0927 78.2432 48.2583 79.4639 48.7561L58.5732 68.7876Z" fill="#289CD8" fill-opacity="1.000000" fill-rule="nonzero"/>
		<path id="Vector" d="M20.3594 45.8033L65.6484 45.8033C66.7422 45.8022 67.7905 45.3672 68.564 44.5938C69.3374 43.8205 69.7725 42.772 69.7734 41.6783L69.7734 39.342C70.0312 39.3373 73.3389 39.8995 73.5947 39.8373C74.585 39.8295 75.5396 39.4671 76.2856 38.8157C77.0317 38.1644 77.5195 37.2673 77.6606 36.2871L80.3574 17.0881C80.5054 16.0076 80.2197 14.9124 79.562 14.0423C78.9043 13.1722 77.9287 12.5983 76.8486 12.4461L32.0024 6.13513C30.9189 5.98508 29.8203 6.26962 28.9458 6.9267C28.0713 7.58377 27.4917 8.56003 27.3345 9.64249L26.1387 18.1731L20.3594 18.1731C19.2656 18.1743 18.2173 18.6093 17.4438 19.3826C16.6704 20.1559 16.2354 21.2044 16.2344 22.2981L16.2344 41.6783C16.2354 42.772 16.6704 43.8205 17.4438 44.5938C18.2173 45.3672 19.2656 45.8022 20.3594 45.8033ZM30.333 20.9231L55.6753 20.9231C56.0059 23.1428 57.1221 25.1702 58.8203 26.637C60.519 28.1038 62.6875 28.9126 64.9316 28.9166L67.0234 28.9166L67.0234 35.0598L64.9316 35.0598C62.687 35.0636 60.5186 35.8723 58.8198 37.3391C57.1211 38.806 56.0049 40.8335 55.6738 43.0533L30.334 43.0533C30.0029 40.8336 28.8872 38.8061 27.1885 37.3393C25.4897 35.8725 23.3213 35.0637 21.0771 35.0598L18.9844 35.0598L18.9844 28.9166L21.0771 28.9166C23.3213 28.9126 25.4897 28.1038 27.188 26.637C28.8862 25.1702 30.0024 23.1428 30.333 20.9231ZM67.0234 26.1666L64.9316 26.1666C63.416 26.1643 61.9468 25.6425 60.7695 24.6884C59.5923 23.7342 58.7773 22.4052 58.4609 20.9231L65.6484 20.9231C66.0132 20.9233 66.3628 21.0683 66.6206 21.3261C66.8784 21.5839 67.0229 21.9335 67.0234 22.2981L67.0234 26.1666ZM18.9844 41.6783L18.9844 37.8098L21.0771 37.8098C22.5928 37.8121 24.062 38.3339 25.2393 39.288C26.417 40.2422 27.2319 41.5711 27.5483 43.0533L20.3594 43.0533C19.9946 43.053 19.6455 42.908 19.3877 42.6502C19.1299 42.3924 18.9849 42.0429 18.9844 41.6783ZM65.6484 43.0533L58.4595 43.0533C58.7764 41.5711 59.5913 40.2422 60.769 39.288C61.9468 38.3339 63.4155 37.8122 64.9316 37.8098L67.0234 37.8098L67.0234 41.6783C67.0229 42.0429 66.8784 42.3925 66.6206 42.6503C66.3628 42.9081 66.0132 43.0531 65.6484 43.0533ZM30.0581 10.0211C30.1118 9.66141 30.3047 9.33734 30.5957 9.11932C30.8867 8.90134 31.2524 8.80704 31.6123 8.85696L76.4697 15.1707C76.8281 15.2212 77.1514 15.4117 77.3696 15.7004C77.5874 15.9891 77.6821 16.3525 77.6328 16.7108L74.939 35.8977C74.9141 36.0771 74.854 36.2498 74.7617 36.4059C74.6699 36.562 74.5483 36.6984 74.4038 36.8074C74.2588 36.9164 74.0942 36.9958 73.9189 37.0411C73.7432 37.0864 73.561 37.0966 73.3813 37.0713L69.7734 36.5654L69.7734 22.2981C69.7725 21.2044 69.3374 20.1559 68.564 19.3826C67.7905 18.6093 66.7422 18.1743 65.6484 18.1731L28.9155 18.1731L30.0581 10.0211ZM20.3594 20.9231L27.5474 20.9231C27.2314 22.4052 26.4165 23.7342 25.2388 24.6884C24.0615 25.6425 22.5928 26.1643 21.0771 26.1666L18.9844 26.1666L18.9844 22.2981C18.9849 21.9335 19.1299 21.584 19.3877 21.3262C19.6455 21.0684 19.9946 20.9235 20.3594 20.9231Z" fill="#289CD8" fill-opacity="1.000000" fill-rule="nonzero"/>
		<path id="Vector" d="M43.0039 41.8381C45.6152 41.8351 48.1191 40.7964 49.9658 38.9497C51.8125 37.103 52.8516 34.5992 52.8545 31.9875C52.3921 18.9522 33.6138 18.955 33.1538 31.9877C33.1567 34.5992 34.1953 37.103 36.042 38.9497C37.8887 40.7964 40.3921 41.8351 43.0039 41.8381ZM43.0039 24.8883C52.3882 25.1867 52.3848 38.7916 43.0034 39.0882C33.6216 38.79 33.6226 25.1854 43.0039 24.8883Z" fill="#289CD8" fill-opacity="1.000000" fill-rule="nonzero"/>
	</g>
</svg>
