<svg width="88.000000" height="88.000000" viewBox="0 0 88 88" fill="none" xmlns="http://www.w3.org/2000/svg" xmlns:xlink="http://www.w3.org/1999/xlink">
	<desc>
			Created with Pixso.
	</desc>
	<defs>
		<clipPath id="clip15_453">
			<rect id="icon.svg (11) 1" width="88.000000" height="88.000000" fill="white" fill-opacity="0"/>
		</clipPath>
	</defs>
	<rect id="icon.svg (11) 1" width="88.000000" height="88.000000" fill="#FFFFFF" fill-opacity="0"/>
	<g clip-path="url(#clip15_453)">
		<path id="Vector" d="M52.6162 28.6656L47.1426 28.6656C46.2036 28.6656 45.4399 29.4294 45.4399 30.368L45.4399 35.8419C45.4399 36.7805 46.2036 37.5443 47.1426 37.5443L51.7339 37.5443L51.7339 42.136C51.7339 43.0749 52.498 43.8387 53.4365 43.8387L58.9102 43.8387C59.8491 43.8387 60.6128 43.0749 60.6128 42.136L60.6128 37.5443L64.4092 37.5443L64.4092 42.136C64.4092 43.0749 65.1729 43.8387 66.1113 43.8387L71.5854 43.8387C72.5239 43.8387 73.2876 43.0749 73.2876 42.136L73.2876 36.6624C73.2876 35.7235 72.5239 34.9597 71.5854 34.9597L66.9937 34.9597L66.9937 30.368C66.9937 29.4294 66.23 28.6656 65.291 28.6656L59.8174 28.6656C58.8784 28.6656 58.1147 29.4294 58.1147 30.368L58.1147 34.9597L54.3188 34.9597L54.3188 30.368C54.3188 29.4294 53.5547 28.6656 52.6162 28.6656ZM48.0244 31.25L51.7339 31.25L51.7339 34.9597L48.0244 34.9597L48.0244 31.25ZM70.7031 41.2542L66.9937 41.2542L66.9937 37.5443L70.7031 37.5443L70.7031 41.2542ZM60.6992 31.25L64.4092 31.25L64.4092 34.9597L60.6992 34.9597L60.6992 31.25ZM58.0288 41.2542L54.3188 41.2542L54.3188 37.5443L58.0288 37.5443L58.0288 41.2542Z" fill="#289CD8" fill-opacity="1.000000" fill-rule="nonzero"/>
		<path id="Vector" d="M42.9004 51.435C42.9004 52.1488 43.479 52.7272 44.1924 52.7272L46.3242 52.7272C47.0381 52.7272 47.6167 52.1488 47.6167 51.435C47.6167 50.7212 47.0381 50.1428 46.3242 50.1428L44.1924 50.1428C43.479 50.1428 42.9004 50.7213 42.9004 51.435Z" fill="#289CD8" fill-opacity="1.000000" fill-rule="nonzero"/>
		<path id="Vector" d="M79.4473 50.1428L51.96 50.1428C51.2466 50.1428 50.668 50.7212 50.668 51.435C50.668 52.1488 51.2466 52.7272 51.96 52.7272L79.4473 52.7272C80.1611 52.7272 80.7393 52.1488 80.7393 51.435C80.7393 50.7212 80.1611 50.1428 79.4473 50.1428Z" fill="#289CD8" fill-opacity="1.000000" fill-rule="nonzero"/>
		<path id="Vector" d="M79.4473 56.8134L44.1924 56.8134C43.479 56.8134 42.9004 57.3918 42.9004 58.1056C42.9004 58.8195 43.479 59.3979 44.1924 59.3979L79.4473 59.3979C80.1611 59.3979 80.7397 58.8195 80.7397 58.1056C80.7397 57.3918 80.1611 56.8134 79.4473 56.8134Z" fill="#289CD8" fill-opacity="1.000000" fill-rule="nonzero"/>
		<path id="Vector" d="M79.4473 63.484L44.1924 63.484C43.479 63.484 42.9004 64.0624 42.9004 64.7762C42.9004 65.4901 43.479 66.0685 44.1924 66.0685L79.4473 66.0685C80.1611 66.0685 80.7397 65.4901 80.7397 64.7762C80.7397 64.0624 80.1611 63.484 79.4473 63.484Z" fill="#289CD8" fill-opacity="1.000000" fill-rule="nonzero"/>
		<path id="Vector" d="M21.0659 55.7289L24.4507 55.7289C28.0674 55.7289 31.0093 52.787 31.0093 49.1707L31.0093 43.4868C32.3027 42.677 33.166 41.2399 33.166 39.6041C33.166 37.7066 31.9722 35.984 30.1958 35.3176L27.0239 34.128C24.2734 33.0963 21.2437 33.0963 18.4927 34.128L15.3213 35.3176C13.5444 35.984 12.3511 37.7066 12.3511 39.6041C12.3511 41.2397 13.2139 42.677 14.5078 43.4868L14.5078 49.1707C14.5073 52.787 17.4497 55.7289 21.0659 55.7289ZM28.4248 44.3217L28.0171 44.5874C24.8223 46.6693 20.6943 46.6691 17.5 44.5874L17.0918 44.3217L17.0918 44.1822L28.4248 44.1822L28.4248 44.3217ZM24.4507 53.1445L21.0659 53.1445C18.8745 53.1445 17.0918 51.3618 17.0918 49.1707L17.0918 47.3383C18.8643 48.267 20.811 48.733 22.7583 48.733C24.7056 48.733 26.6519 48.267 28.4248 47.3385L28.4248 49.1707C28.4248 51.3619 26.6421 53.1445 24.4507 53.1445ZM16.2285 37.7375L19.4004 36.5479C20.4829 36.1418 21.6206 35.9389 22.7583 35.9389C23.896 35.9389 25.0337 36.142 26.1162 36.5479L29.2876 37.7375C30.061 38.0276 30.5811 38.7778 30.5811 39.6041C30.5811 40.7034 29.687 41.5976 28.5874 41.5976L16.9287 41.5976C15.8296 41.5976 14.9355 40.7034 14.9355 39.6041C14.9355 38.7778 15.4551 38.0278 16.2285 37.7375Z" fill="#289CD8" fill-opacity="1.000000" fill-rule="nonzero"/>
		<path id="Vector" d="M14.0015 27.7231L10.3701 27.7231C8.04785 27.7231 6.1582 29.6127 6.1582 31.9353L6.1582 57.1175C6.1582 59.4401 8.04785 61.3297 10.3701 61.3297L35.146 61.3297C37.4683 61.3297 39.3579 59.4401 39.3579 57.1175L39.3579 31.9354C39.3579 29.6129 37.4683 27.7233 35.146 27.7233L19.5083 27.7233C18.7944 27.7233 18.2163 28.3017 18.2163 29.0155C18.2163 29.7294 18.7944 30.3078 19.5083 30.3078L35.146 30.3078C36.0435 30.3078 36.7734 31.0379 36.7734 31.9354L36.7734 57.1177C36.7734 58.0152 36.0435 58.7454 35.146 58.7454L10.3701 58.7454C9.47266 58.7454 8.74268 58.0152 8.74268 57.1177L8.74268 31.9354C8.74268 31.0379 9.47266 30.3078 10.3701 30.3078L14.0015 30.3078C14.7153 30.3078 15.2935 29.7294 15.2935 29.0155C15.2935 28.3017 14.7153 27.7231 14.0015 27.7231Z" fill="#289CD8" fill-opacity="1.000000" fill-rule="nonzero"/>
		<path id="Vector" d="M86.708 30.4319C87.4214 30.4319 88 29.8535 88 29.1397L88 23.4874C88 19.6352 84.8662 16.5011 81.0137 16.5011L64.2222 16.5011L64.2222 14.7532C64.2222 13.0297 62.8198 11.6274 61.0962 11.6274L57.4673 11.6274C56.7534 11.6274 56.1748 12.2058 56.1748 12.9196C56.1748 13.6334 56.7534 14.2118 57.4673 14.2118L61.0962 14.2118C61.3945 14.2118 61.6377 14.4546 61.6377 14.7532L61.6377 17.968C61.6377 19.3604 60.5049 20.4932 59.1123 20.4932L29.2729 20.4932C27.8804 20.4932 26.7476 19.3604 26.7476 17.968L26.7476 14.7532C26.7476 14.4547 26.9907 14.2118 27.2891 14.2118L51.9604 14.2118C52.6743 14.2118 53.2524 13.6334 53.2524 12.9196C53.2524 12.2058 52.6743 11.6274 51.9604 11.6274L27.2891 11.6274C25.5654 11.6274 24.1631 13.0297 24.1631 14.7532L24.1631 16.5013L6.98633 16.5013C3.13379 16.5011 0 19.6352 0 23.4874L0 69.3864C0 73.2385 3.13379 76.3726 6.98633 76.3726L81.0137 76.3726C84.8657 76.3726 88 73.2387 88 69.3864L88 34.6466C88 33.9328 87.4214 33.3544 86.708 33.3544C85.9941 33.3544 85.4155 33.9328 85.4155 34.6466L85.4155 69.3864C85.4155 71.8135 83.4409 73.7881 81.0137 73.7881L6.98633 73.7881C4.55908 73.7881 2.58447 71.8135 2.58447 69.3864L2.58447 23.4874C2.58447 21.0602 4.55908 19.0856 6.98633 19.0856L24.2881 19.0856C24.7993 21.3671 26.8394 23.0777 29.2729 23.0777L59.1123 23.0777C61.5459 23.0777 63.5859 21.3671 64.0972 19.0856L81.0137 19.0856C83.4409 19.0856 85.4155 21.0602 85.4155 23.4874L85.4155 29.1397C85.4155 29.8535 85.9941 30.4319 86.708 30.4319Z" fill="#289CD8" fill-opacity="1.000000" fill-rule="nonzero"/>
	</g>
</svg>
